<svg width="92" height="24" viewBox="0 0 92 24" fill="none" xmlns="http://www.w3.org/2000/svg">
<path d="M3.65105 22.7545C2.44803 18.3748 0 7.33882 0 6.29468C0 6.03933 0.0941988 5.97123 0.822821 5.70793C2.33568 5.16089 4.42848 4.53215 4.47728 4.61159C4.52041 4.68082 4.74739 7.26505 5.12192 11.9409C5.19228 12.8148 5.28081 13.59 5.32053 13.6626C5.36252 13.7432 5.6837 13.4538 6.1286 12.9351C6.85268 12.0907 9.95216 9.1615 11.2925 8.05609C12.2322 7.2798 13.1765 6.64878 13.3229 6.69758C13.5226 6.76341 13.8359 8.4692 14.5906 13.5866C14.9197 15.8178 15.082 16.6509 15.191 16.6509C15.2341 16.6509 15.6007 16.2627 16.0047 15.7872C17.0057 14.6114 19.641 12.0624 21.2254 10.7379C23.3068 8.99808 26.6832 6.49216 27.4652 6.10742C27.7149 5.98485 27.7069 6.00641 27.3971 6.28788C27.203 6.46265 26.6583 6.93138 26.185 7.32747C24.3771 8.84259 21.4558 12.034 19.4379 14.6977C18.354 16.1311 18.32 16.1765 17.6345 17.1945C16.8604 18.343 15.856 19.7186 15.4497 20.1839C14.8562 20.8671 14.2592 20.7502 13.8109 19.8627C13.5408 19.3282 13.0936 17.8652 12.2595 14.7873C11.8214 13.1701 11.4321 11.8161 11.3946 11.7798C11.3572 11.7435 11.2516 11.8161 11.1597 11.9409C11.0008 12.1577 9.33589 14.7147 8.57436 15.9132C7.58357 17.4703 5.84259 20.5255 4.89039 22.3788C4.44096 23.2505 4.05849 23.9791 4.03806 23.9995C4.01877 24.0188 3.84399 23.4593 3.65105 22.7545ZM81.0336 15.4592V9.61434L84.637 9.61661C88.5173 9.61888 89.3595 9.70627 90.2526 10.2056C91.3626 10.8264 91.6985 11.7185 91.7008 14.0485C91.7019 15.8666 91.5362 16.5703 90.9552 17.2138C90.1346 18.1217 89.5717 18.2523 86.0841 18.3385L83.2467 18.41V19.857V21.3041H82.1402H81.0336V15.4592ZM87.5016 16.652C88.5616 16.5306 88.8941 16.3558 89.2619 15.7316C89.4537 15.4059 89.4888 15.1426 89.4877 14.0405C89.4877 12.6049 89.3152 12.0465 88.7477 11.6322C88.3153 11.3167 87.1974 11.1919 85.1194 11.2282L83.2467 11.26L83.2241 13.9191C83.2116 15.3809 83.2275 16.6202 83.2592 16.6713C83.3387 16.8007 86.3292 16.7871 87.5016 16.652ZM32.056 16.6407C31.0186 14.5683 28.8271 9.87424 28.8271 9.72329C28.8271 9.66087 29.3355 9.61434 30.0165 9.61434H31.207L31.5089 10.2102C31.6746 10.5382 32.1808 11.6232 32.6325 12.6219C33.9195 15.466 34.1998 16.0255 34.2464 15.8496C34.2702 15.76 34.9614 14.3197 35.7808 12.6503L37.2721 9.61434H38.3037H39.3354L39.4999 10.057C39.5907 10.2998 40.2524 11.7457 40.9708 13.2699L42.276 16.0403L43.5868 13.0259C44.3086 11.3678 44.9328 9.9219 44.9748 9.81295C45.0395 9.64158 45.2109 9.61434 46.2448 9.61434C47.0097 9.61434 47.4399 9.65747 47.4399 9.73464C47.4399 9.8504 47.2617 10.2454 45.195 14.7215C44.6627 15.8769 44.0896 17.1536 43.9227 17.5588L43.6208 18.2965L42.3463 18.3283L41.0718 18.3612L40.2149 16.5692C39.7428 15.584 39.0755 14.1904 38.7327 13.4731C38.3571 12.6889 38.0835 12.236 38.0461 12.3382C38.0109 12.4312 37.5002 13.5037 36.91 14.7215C36.321 15.9393 35.6934 17.2535 35.5152 17.6439L35.1918 18.3533H34.0534H32.914L32.056 16.6407ZM48.9153 12.3382V6.32306L49.7381 6.32192C50.1909 6.32079 50.6755 6.28901 50.8163 6.25156L51.0716 6.18346V8.13894V10.0944L51.327 10.0206C52.3825 9.71308 53.5049 9.59278 54.9281 9.63477C56.3138 9.67449 56.5283 9.70967 57.1435 9.9934C57.9731 10.3781 58.3011 10.6676 58.5746 11.26C58.763 11.6686 58.7846 12.0488 58.7868 15.0336L58.7891 18.3533H57.7177H56.6464L56.6112 15.2969C56.5783 12.4255 56.5624 12.2224 56.3445 11.9307C56.0494 11.5369 55.5205 11.3542 54.3833 11.2543C53.4754 11.176 51.6675 11.3542 51.2702 11.5619C51.0875 11.6572 51.0716 11.9398 51.0716 15.0098V18.3533H49.9934H48.9153V12.3382ZM62.4776 18.2466C61.0544 17.8982 60.2588 16.8268 60.4189 15.4694C60.5539 14.3311 61.4063 13.6059 62.8873 13.3698C63.2868 13.3063 64.7293 13.2211 66.0946 13.1803L68.5756 13.1065L68.5166 12.6616C68.436 12.0635 68.1636 11.6765 67.6608 11.4506C67.3147 11.294 66.7336 11.2554 64.2084 11.2248L61.1725 11.1862V10.3918V9.59732L64.7758 9.64044C68.7322 9.68698 68.9229 9.71535 69.8013 10.4122C70.1021 10.6494 70.312 10.9536 70.472 11.3826C70.6877 11.9568 70.7058 12.2542 70.7058 15.18V18.3533L66.762 18.3419C64.5931 18.3351 62.6649 18.2931 62.4776 18.2466ZM67.8515 16.8052L68.5495 16.7326V15.6703V14.608L66.7052 14.6091C63.4991 14.6103 62.6479 14.8804 62.6479 15.8984C62.6479 16.2321 63.0973 16.652 63.5762 16.7655C64.0461 16.8767 66.914 16.9028 67.8515 16.8052ZM72.7487 14.9769C72.8145 11.0829 72.8384 10.9751 73.8076 10.3271C74.6406 9.76869 75.0095 9.69833 77.3735 9.64385L79.5582 9.59391V10.3861V11.1794L77.8275 11.2214C75.9231 11.2679 75.3295 11.4348 75.0492 11.9977C74.9482 12.202 74.9085 13.1281 74.9062 15.3173L74.9051 18.3533H73.7985H72.6919L72.7487 14.9769ZM15.6109 12.892C15.4872 11.8955 15.0979 9.23641 15.0389 8.97538C14.9708 8.67576 15.2557 8.47941 17.6016 7.21397C21.1005 5.32773 26.0136 3.1725 30.3592 1.61879C31.358 1.26243 32.4305 0.877687 32.7426 0.764194C33.9944 0.312494 35.2008 -0.0518172 35.2587 0.00606398C35.2928 0.0389768 34.8422 0.306819 34.2577 0.59963C31.148 2.16015 24.4928 6.28106 21.7906 8.32053C19.8181 9.80841 16.0433 12.9862 15.7596 13.397C15.7198 13.4549 15.6529 13.2279 15.6109 12.892Z" fill="#FAFAFA"/>
</svg>
